<svg width="122" height="38" viewBox="0 0 122 38" fill="none" xmlns="http://www.w3.org/2000/svg">
<path d="M70.6208 2.10217V4.86888C70.6283 5.05441 70.7083 5.2296 70.8436 5.35679C70.9789 5.48399 71.1587 5.55304 71.3443 5.54913H77.7707L70.3663 16.1451C69.8982 16.8262 69.8982 17.5918 69.8982 18.0174V20.8256C69.8982 21.2512 70.366 21.6767 70.7916 21.4639C74.9618 19.2085 80.0257 19.4212 83.8131 21.4213C84.2809 21.6764 84.7065 21.2086 84.7065 20.783V17.8469C84.6637 17.4639 84.5362 17.0383 84.0681 16.783C81.9408 15.5918 79.4298 15.2514 77.0467 15.294L83.4297 6.18743C84.0256 5.33601 84.3659 4.82563 84.3659 4.44265V2.10217C84.3586 1.91652 84.2787 1.74118 84.1434 1.61384C84.0081 1.48651 83.8282 1.41736 83.6424 1.42127H71.3017C71.211 1.41644 71.1203 1.43074 71.0355 1.46325C70.9508 1.49576 70.8737 1.54574 70.8095 1.60996C70.7453 1.67418 70.6953 1.75119 70.6628 1.83599C70.6303 1.92079 70.616 2.01148 70.6208 2.10217Z" fill="#C4C4C4"/>
<path d="M21.8965 22.0174H25.6413C25.8251 22.024 26.0049 21.9626 26.1462 21.8448C26.2876 21.727 26.3805 21.5613 26.4072 21.3793V11.1662C26.4072 11.0995 26.4072 11.0321 26.4071 10.9641C26.4046 8.73226 26.4015 5.84691 29.0031 5.84691C31.3785 5.84691 31.3392 8.43417 31.3078 10.5028C31.3043 10.7317 31.3009 10.9542 31.3009 11.1662V21.3793C31.3009 21.7198 31.5989 22.0176 31.9818 22.0602H35.7266C35.9123 22.064 36.0922 21.9949 36.2274 21.8675C36.3627 21.7402 36.4426 21.5649 36.4499 21.3793V11.1662C36.4499 11.0687 36.4496 10.9672 36.4493 10.8626C36.4457 9.77978 36.4411 8.35647 36.7903 7.46403C36.9718 7.01024 37.282 6.6194 37.6827 6.33964C38.0834 6.05989 38.5572 5.90342 39.0457 5.88951C40.1522 5.88951 40.9608 6.27249 41.2586 7.54909C41.3921 8.15018 41.3684 9.53743 41.3521 10.4976C41.3476 10.7609 41.3436 10.9921 41.3436 11.1662V21.3793C41.3436 21.7198 41.6416 22.0176 42.0245 22.0602H45.7272C45.9129 22.064 46.0928 21.9949 46.228 21.8675C46.3633 21.7402 46.4432 21.5649 46.4506 21.3793V9.20881C46.4506 8.8987 46.4562 8.58295 46.4619 8.26476C46.4944 6.44349 46.5283 4.54269 45.5143 3.16618C44.4505 1.67672 42.7483 1.03842 41.1738 1.03842C38.9607 1.03842 36.8753 2.18736 35.9819 4.61291C34.9605 2.18736 33.4712 1.03842 31.1307 1.03842C28.8328 1.03842 27.0878 2.18736 26.1944 4.61291H26.1093V2.10217C26.0956 1.93013 26.0182 1.7694 25.8923 1.65136C25.7664 1.53333 25.601 1.46648 25.4284 1.46387H21.939C21.7533 1.45999 21.5734 1.52915 21.4382 1.65648C21.3029 1.78381 21.223 1.95914 21.2156 2.14477V21.3791C21.2434 21.5455 21.325 21.6981 21.4481 21.8135C21.5711 21.9289 21.7287 22.0005 21.8965 22.0174Z" fill="#C4C4C4"/>
<path fill-rule="evenodd" clip-rule="evenodd" d="M103.6 11.8897C103.6 5.80445 100.579 1.03842 95.0043 1.03842C89.5574 1.03842 86.536 5.71926 86.5786 11.7194C86.5786 17.677 89.5574 22.443 95.0043 22.443C100.281 22.443 103.6 17.7622 103.6 11.8897ZM92.0681 11.1237C92.0681 8.78323 92.2383 4.99589 95.0043 4.99589C96.1959 4.99589 97.0469 5.5064 97.4725 6.8682C97.9407 8.40025 98.0257 10.3576 98.0257 11.9747C98.0257 14.4429 97.8556 18.4855 94.9619 18.4855C92.0663 18.4855 92.0675 13.6027 92.0681 11.2227L92.0681 11.1237Z" fill="#C4C4C4"/>
<path d="M107.047 22.0174H110.792C110.98 22.0157 111.162 21.9462 111.302 21.821C111.443 21.6958 111.534 21.5238 111.558 21.3369V10.9532C111.558 9.634 111.643 8.48467 112.153 7.29352C112.579 6.35717 113.43 5.76159 114.324 5.76159C116.711 5.76159 116.687 8.35309 116.667 10.4245C116.666 10.6055 116.664 10.7825 116.664 10.9535V21.4215C116.707 21.7193 117.005 21.9745 117.345 22.0171H121.09C121.263 22.0247 121.432 21.9681 121.566 21.8581C121.7 21.7482 121.788 21.5926 121.813 21.4215V9.29361C121.813 7.42118 121.813 4.82537 120.835 3.29345C119.771 1.63361 118.111 1.03803 116.452 1.03803C113.856 1.03803 112.409 2.27204 111.345 4.91044H111.26V1.97425C111.222 1.82051 111.135 1.68332 111.012 1.58347C110.889 1.48363 110.737 1.42659 110.579 1.42101H107.09C106.912 1.42236 106.742 1.48768 106.609 1.60496C106.476 1.72225 106.39 1.88359 106.366 2.05931V21.3365C106.366 21.6771 106.664 21.9748 107.047 22.0174Z" fill="#C4C4C4"/>
<path fill-rule="evenodd" clip-rule="evenodd" d="M64.1455 22.1613C64.3057 22.146 64.4572 22.0808 64.5785 21.975L64.5799 21.9748C64.8518 21.7482 65.1988 21.4519 65.5694 21.1354C66.2429 20.5603 66.9945 19.9184 67.5161 19.5067C67.8139 19.294 67.7714 18.8684 67.5161 18.528C67.434 18.4101 67.3514 18.2953 67.2695 18.1815C66.6714 17.3506 66.1118 16.5732 66.1118 15.0386V9.20868C66.1118 9.01385 66.1129 8.82008 66.1139 8.62756C66.1262 6.38193 66.1376 4.30825 64.4522 2.74047C63.0054 1.33621 60.6224 0.868164 58.7926 0.868164C55.2181 0.868164 51.2605 2.18736 50.4095 6.61301C50.3244 7.08118 50.6649 7.2939 50.9627 7.37897L54.5798 7.76195C54.9203 7.76195 55.133 7.42144 55.2181 7.08105C55.516 5.549 56.7926 4.82563 58.2395 4.82563C59.0048 4.82563 59.8559 5.12342 60.324 5.80432C60.813 6.48152 60.8032 7.3918 60.7943 8.21107C60.7932 8.31845 60.792 8.42426 60.792 8.52778V8.99583C60.4392 9.03734 60.0683 9.07662 59.6859 9.11712C57.7162 9.32571 55.4385 9.56693 53.7281 10.315C51.387 11.3364 49.7274 13.379 49.7274 16.4429C49.7274 20.3153 52.1955 22.2728 55.3446 22.2728C57.9828 22.2728 59.4723 21.6338 61.5149 19.5493C61.6143 19.6922 61.7047 19.8251 61.7904 19.9512C62.2915 20.6881 62.6313 21.1879 63.6851 22.06C63.8242 22.1411 63.9852 22.1765 64.1455 22.1613ZM60.7914 13.0544C60.7912 12.9788 60.7911 12.9027 60.7911 12.8259V12.018C58.0677 12.018 55.2165 12.6138 55.2165 15.8053C55.2165 17.4224 56.0676 18.5288 57.5144 18.5288C58.5783 18.5288 59.5146 17.8905 60.1102 16.8266C60.7953 15.5768 60.7935 14.4039 60.7914 13.0544Z" fill="#C4C4C4"/>
<path fill-rule="evenodd" clip-rule="evenodd" d="M14.9527 22.1613C15.113 22.146 15.2644 22.0808 15.3857 21.975L15.3872 21.9748C15.6591 21.7483 16.006 21.4519 16.3767 21.1354C17.0502 20.5603 17.8018 19.9184 18.3233 19.5067C18.6211 19.294 18.5787 18.8684 18.3233 18.528C18.2413 18.4101 18.1587 18.2953 18.0767 18.1815C17.4787 17.3506 16.9191 16.5732 16.9191 15.0386V9.20868C16.9191 9.01385 16.9201 8.82008 16.9212 8.62757C16.9335 6.38193 16.9449 4.30825 15.2595 2.74047C13.8126 1.33621 11.4297 0.868164 9.59985 0.868164C6.02536 0.868164 2.06776 2.18736 1.21673 6.61301C1.13167 7.08118 1.47218 7.2939 1.76997 7.37897L5.38705 7.76195C5.72757 7.76195 5.94029 7.42144 6.02536 7.08105C6.32327 5.549 7.59988 4.82563 9.04674 4.82563C9.81205 4.82563 10.6632 5.12342 11.1313 5.80432C11.6203 6.48152 11.6104 7.39181 11.6016 8.21107C11.6004 8.31845 11.5993 8.42426 11.5993 8.52778V8.99583C11.2465 9.03734 10.8756 9.07662 10.4932 9.11712C8.52351 9.32571 6.24582 9.56693 4.53538 10.315C2.19425 11.3364 0.534668 13.379 0.534668 16.4429C0.534668 20.3153 3.00281 22.2728 6.15185 22.2728C8.79012 22.2728 10.2796 21.6338 12.3221 19.5493C12.4216 19.6922 12.512 19.8252 12.5977 19.9512C13.0988 20.6881 13.4385 21.1879 14.4924 22.06C14.6315 22.1411 14.7925 22.1765 14.9527 22.1613ZM11.6412 13.0544C11.6411 12.9788 11.641 12.9027 11.641 12.8259V12.018C8.91752 12.018 6.0664 12.6138 6.0664 15.8053C6.0664 17.4224 6.91743 18.5288 8.36429 18.5288C9.42817 18.5288 10.3645 17.8905 10.9601 16.8266C11.6452 15.5768 11.6433 14.4039 11.6412 13.0544Z" fill="#C4C4C4"/>
<path d="M78.7056 26.0601C77.8122 24.9112 72.748 25.5069 70.4927 25.8048C69.8118 25.8898 69.6842 25.2941 70.3225 24.8686C74.3651 22.0174 80.961 22.8685 81.7269 23.8047C82.4929 24.7409 81.5142 31.3789 77.7262 34.5283C77.1307 34.9963 76.5773 34.741 76.8329 34.1027L76.8774 33.9914C77.7489 31.8146 79.5839 27.2309 78.7056 26.0601Z" fill="#C4C4C4"/>
<path d="M75.7696 29.4221C68.7481 34.614 58.5352 37.3798 49.7265 37.3798C37.3858 37.3798 26.3218 32.8265 17.8961 25.2519C17.2578 24.6564 17.811 23.8477 18.6194 24.3157C27.6835 29.5924 38.8752 32.7414 50.4498 32.7414C58.2373 32.7414 66.8331 31.1245 74.7482 27.7626C75.9393 27.2945 76.9185 28.5711 75.7696 29.4221Z" fill="#C4C4C4"/>
</svg>
