<svg width="116" height="19" viewBox="0 0 116 19" fill="none" xmlns="http://www.w3.org/2000/svg">
<path d="M20.2706 7.15759C20.2007 6.94798 20.0146 6.79523 19.7906 6.76358L13.4975 5.87339L10.6831 0.322446C10.5829 0.124841 10.3761 -0.000244141 10.1498 -0.000244141C9.9234 -0.000244141 9.71667 0.124841 9.61648 0.322446L6.80193 5.87339L0.508953 6.76358C0.28498 6.79523 0.0988316 6.94798 0.0288921 7.15755C-0.0410871 7.36716 0.0172752 7.59722 0.179397 7.75102L4.73292 12.0718L3.65814 18.173C3.61984 18.3902 3.71158 18.6097 3.89472 18.7392C3.99832 18.8125 4.12103 18.8498 4.24434 18.8498C4.33902 18.8498 4.43401 18.8278 4.521 18.7833L10.1497 15.9026L15.7783 18.7832C15.9787 18.8858 16.2214 18.8687 16.4046 18.7392C16.5877 18.6097 16.6795 18.3901 16.6412 18.1729L15.5661 12.0718L20.1201 7.75098C20.2822 7.59722 20.3406 7.36716 20.2706 7.15759Z" fill="#FFCA56"/>
<path d="M44.1956 7.15759C44.1257 6.94798 43.9396 6.79523 43.7156 6.76358L37.4225 5.87339L34.6081 0.322446C34.508 0.124841 34.3012 -0.000244141 34.0748 -0.000244141C33.8484 -0.000244141 33.6417 0.124841 33.5415 0.322446L30.727 5.87339L24.434 6.76358C24.21 6.79523 24.0239 6.94798 23.9539 7.15755C23.884 7.36716 23.9423 7.59722 24.1044 7.75102L28.658 12.0718L27.5832 18.173C27.5449 18.3902 27.6366 18.6097 27.8198 18.7392C27.9234 18.8125 28.0461 18.8498 28.1694 18.8498C28.2641 18.8498 28.3591 18.8278 28.446 18.7833L34.0748 15.9026L39.7033 18.7832C39.9037 18.8858 40.1465 18.8687 40.3296 18.7392C40.5128 18.6097 40.6045 18.3901 40.5663 18.1729L39.4911 12.0718L44.0452 7.75098C44.2073 7.59722 44.2657 7.36716 44.1956 7.15759Z" fill="#FFCA56"/>
<path d="M68.1207 7.15759C68.0508 6.94798 67.8647 6.79523 67.6407 6.76358L61.3476 5.87339L58.5332 0.322446C58.433 0.124841 58.2262 -0.000244141 57.9999 -0.000244141C57.7735 -0.000244141 57.5668 0.124841 57.4666 0.322446L54.652 5.87339L48.3591 6.76358C48.1351 6.79523 47.9489 6.94798 47.879 7.15755C47.809 7.36716 47.8674 7.59722 48.0295 7.75102L52.583 12.0718L51.5082 18.173C51.4699 18.3902 51.5617 18.6097 51.7448 18.7392C51.8484 18.8125 51.9711 18.8498 52.0944 18.8498C52.1891 18.8498 52.2841 18.8278 52.3711 18.7833L57.9998 15.9026L63.6284 18.7832C63.8288 18.8858 64.0715 18.8687 64.2547 18.7392C64.4378 18.6097 64.5296 18.3901 64.4913 18.1729L63.4162 12.0718L67.9702 7.75098C68.1323 7.59722 68.1907 7.36716 68.1207 7.15759Z" fill="#FFCA56"/>
<path d="M92.0455 7.15759C91.9756 6.94798 91.7895 6.79523 91.5655 6.76358L85.2724 5.87339L82.458 0.322446C82.3578 0.124841 82.151 -0.000244141 81.9247 -0.000244141C81.6983 -0.000244141 81.4916 0.124841 81.3914 0.322446L78.5768 5.87339L72.2839 6.76358C72.0599 6.79523 71.8737 6.94798 71.8038 7.15755C71.7338 7.36716 71.7922 7.59722 71.9543 7.75102L76.5078 12.0718L75.433 18.173C75.3947 18.3902 75.4865 18.6097 75.6696 18.7392C75.7732 18.8125 75.8959 18.8498 76.0192 18.8498C76.1139 18.8498 76.2089 18.8278 76.2959 18.7833L81.9246 15.9026L87.5532 18.7832C87.7536 18.8858 87.9963 18.8687 88.1795 18.7392C88.3626 18.6097 88.4544 18.3901 88.4161 18.1729L87.341 12.0718L91.895 7.75098C92.0571 7.59722 92.1155 7.36716 92.0455 7.15759Z" fill="#FFCA56"/>
<path d="M115.971 7.15759C115.901 6.94798 115.715 6.79523 115.491 6.76358L109.197 5.87339L106.383 0.322446C106.283 0.124841 106.076 -0.000244141 105.85 -0.000244141C105.623 -0.000244141 105.417 0.124841 105.316 0.322446L102.502 5.87339L96.2089 6.76358C95.9849 6.79523 95.7988 6.94798 95.7288 7.15755C95.6589 7.36716 95.7172 7.59722 95.8793 7.75102L100.433 12.0718L99.3581 18.173C99.3198 18.3902 99.4115 18.6097 99.5947 18.7392C99.6983 18.8125 99.821 18.8498 99.9443 18.8498C100.039 18.8498 100.134 18.8278 100.221 18.7833L105.85 15.9026L111.478 18.7832C111.679 18.8858 111.921 18.8687 112.105 18.7392C112.288 18.6097 112.379 18.3901 112.341 18.1729L111.266 12.0718L115.82 7.75098C115.982 7.59722 116.041 7.36716 115.971 7.15759Z" fill="#FFCA56"/>
</svg>
